<svg xmlns="http://www.w3.org/2000/svg" viewBox="0 0 1000 1000"><defs><style>.cls-1{fill:#360090;}.cls-2{fill:#fff;}.cls-3{fill:#f15a24;}</style></defs><title>Untitled-2</title><g id="Layer_2" data-name="Layer 2"><rect class="cls-1" width="1000" height="1000"/><polygon class="cls-2" points="815.37 890.35 38.6 729 141.84 60.01 918.6 221.36 815.37 890.35"/><path class="cls-1" d="M204.59,370.65,193,486.83H160.49q-4.47-26.77-7.88-60.92-1.56,14.64-7.26,60.92H113L101.36,370.65h25.3l2.75,40.54,2.66,39.19q1.44-30.42,7.2-79.73h27q.54,5.1,2.84,38.32L172,453.18q2.22-42.19,7.27-82.53Z"/><path class="cls-1" d="M267.5,370.65l-19,74.13v42.05H224.39V444.78l-18.31-74.13H230q5.61,34,6.32,45.79,2.18-18.6,7.26-45.79Z"/><path class="cls-1" d="M331.82,370.65V486.83h-26V438H298v48.79H272V370.65h26V412.2h7.79V370.65Z"/><path class="cls-1" d="M342.28,370.65h19.48q18.87,0,25.51,2a19.13,19.13,0,0,1,10.11,6.6,22.33,22.33,0,0,1,4.33,10.23q.87,5.64.87,22.14v40.69q0,15.63-1.27,20.91a16.25,16.25,0,0,1-4.42,8.26,17.42,17.42,0,0,1-7.79,4.16q-4.65,1.19-14,1.18H342.28Zm26,19.88V467q5.64,0,6.93-2.62t1.3-14.24V405a70,70,0,0,0-.43-10.11,4.83,4.83,0,0,0-2-3.27Q372.59,390.54,368.31,390.53Z"/><path class="cls-1" d="M472.16,370.65V486.83h-26V438h-7.79v48.79h-26V370.65h26V412.2h7.79V370.65Z"/><path class="cls-1" d="M527.63,370.65l14.89,116.18H515.91L514.51,466H505.2l-1.57,20.88H476.71L490,370.65Zm-13.8,74.7q-2-19.73-4-48.79-4,33.36-5,48.79Z"/><path class="cls-1" d="M627.29,370.65V486.83H604.53l0-78.43-9.07,78.43H579.29l-9.56-76.64,0,76.64H546.94V370.65h33.7q1.5,10.49,3.09,24.7l3.69,29.55,6-54.25Z"/><path class="cls-1" d="M720.87,421.24h-26V401.05q0-8.81-.84-11c-.55-1.46-1.78-2.19-3.68-2.19q-3.21,0-4.08,2.66T685.37,402v54c0,5.65.28,9.33.86,11.06a3.68,3.68,0,0,0,3.9,2.58,3.64,3.64,0,0,0,3.8-2.59q.9-2.59.9-12.16v-14.6h26v4.53q0,18-2.2,25.58T709,483.6q-7.51,5.67-18.52,5.67-11.45,0-18.87-4.81a22.75,22.75,0,0,1-9.83-13.31q-2.41-8.5-2.41-25.58V411.63a173.8,173.8,0,0,1,.74-18.84,28.67,28.67,0,0,1,4.42-12.09,25.48,25.48,0,0,1,10.21-9.15,32.55,32.55,0,0,1,15-3.34q11.49,0,19,5.16a24,24,0,0,1,9.84,12.87q2.34,7.69,2.35,24Z"/><path class="cls-1" d="M756.25,370.65V486.83h-26V370.65Z"/><path class="cls-1" d="M819.15,370.65V393.9H803.69v92.93h-26V393.9h-15.4V370.65Z"/><path class="cls-1" d="M883.72,370.65l-19,74.13v42.05H840.61V444.78L822.3,370.65h23.93q5.6,34,6.32,45.79,2.16-18.6,7.25-45.79Z"/><path class="cls-3" d="M108.26,513.76h20.26q9.6,0,14.54,1.34a14.37,14.37,0,0,1,8,5.42q3,4.08,3,13.14,0,6.14-2.15,8.55t-8.47,3.71q7,1.43,9.55,4.73c1.68,2.21,2.51,5.58,2.51,10.14v6.48q0,7.08-1.81,10.5a9.43,9.43,0,0,1-5.76,4.67q-4,1.24-16.21,1.25H108.26Zm20.31,12v15.55c.87,0,1.54,0,2,0,2,0,3.26-.44,3.81-1.31s.82-3.4.82-7.54a11,11,0,0,0-.68-4.6,3.07,3.07,0,0,0-1.76-1.66A16.92,16.92,0,0,0,128.57,525.73Zm0,26.43v19.57c2.86-.09,4.69-.49,5.47-1.21s1.19-2.49,1.19-5.31v-6.53c0-3-.36-4.81-1.07-5.44S131.59,552.25,128.57,552.16Z"/><path class="cls-3" d="M209,513.76V560.5a73.31,73.31,0,0,1-.58,11.16,14.49,14.49,0,0,1-3.43,6.61,17.62,17.62,0,0,1-7.5,5.14,31.06,31.06,0,0,1-11,1.75,34.12,34.12,0,0,1-12.35-2.07,18.38,18.38,0,0,1-8-5.4,14.12,14.12,0,0,1-3.14-7,153.85,153.85,0,0,1-.48-15.53V513.76h20.3V566.2q0,4.57.56,5.85a2.19,2.19,0,0,0,2.24,1.27,2.37,2.37,0,0,0,2.49-1.4c.36-.93.55-3.14.55-6.63V513.76Z"/><path class="cls-3" d="M259.86,534.93H241v-5.19q0-3.63-.72-4.62a2.79,2.79,0,0,0-2.41-1,3.17,3.17,0,0,0-2.77,1.34,7.08,7.08,0,0,0-.94,4.06,10.51,10.51,0,0,0,1.05,5.27c.68,1.19,2.59,2.61,5.74,4.28q13.56,7.2,17.08,11.83t3.52,14.9q0,7.47-1.95,11t-7.55,5.94a32.81,32.81,0,0,1-13,2.4,31.85,31.85,0,0,1-13.92-2.77q-5.76-2.76-7.55-7t-1.78-12.14v-4.58h18.86v8.51c0,2.62.26,4.3.79,5.05a3.22,3.22,0,0,0,2.82,1.12,3.42,3.42,0,0,0,3-1.42,7.42,7.42,0,0,0,1-4.23q0-6.18-1.88-8.08t-9.5-6.35a93.77,93.77,0,0,1-10-6.52,15.13,15.13,0,0,1-4.07-5.62,22.32,22.32,0,0,1-1.62-9.15q0-8,2.29-11.75a15,15,0,0,1,7.41-5.81,32.42,32.42,0,0,1,12.34-2.1,35.53,35.53,0,0,1,13.48,2.29q5.58,2.29,7.39,5.77t1.8,11.81Z"/><path class="cls-3" d="M288.23,513.76v69.93H267.92V513.76Z"/><path class="cls-3" d="M341.72,513.76v69.93h-17.8L313.36,551.9v31.79h-17V513.76h17l11.38,31.49V513.76Z"/><path class="cls-3" d="M349.87,513.76h33.86v14H370.18V541h12.68v13.3H370.18V569.7h14.9v14H349.87Z"/><path class="cls-3" d="M433.94,534.93H415.08v-5.19q0-3.63-.72-4.62a2.79,2.79,0,0,0-2.41-1,3.2,3.2,0,0,0-2.78,1.34,7.16,7.16,0,0,0-.94,4.06,10.5,10.5,0,0,0,1.06,5.27c.67,1.19,2.59,2.61,5.74,4.28q13.56,7.2,17.08,11.83t3.52,14.9q0,7.47-1.95,11t-7.55,5.94a32.81,32.81,0,0,1-13,2.4,31.85,31.85,0,0,1-13.92-2.77q-5.76-2.76-7.55-7t-1.78-12.14v-4.58h18.86v8.51c0,2.62.26,4.3.79,5.05a3.22,3.22,0,0,0,2.82,1.12,3.43,3.43,0,0,0,3-1.42,7.42,7.42,0,0,0,1-4.23q0-6.18-1.88-8.08T405,553.24a93.3,93.3,0,0,1-10-6.52,15.26,15.26,0,0,1-4.08-5.62,22.5,22.5,0,0,1-1.61-9.15q0-8,2.29-11.75a15,15,0,0,1,7.4-5.81,32.51,32.51,0,0,1,12.35-2.1,35.53,35.53,0,0,1,13.48,2.29q5.58,2.29,7.38,5.77t1.81,11.81Z"/><path class="cls-3" d="M485,534.93H466.16v-5.19q0-3.63-.72-4.62a2.79,2.79,0,0,0-2.41-1,3.2,3.2,0,0,0-2.78,1.34,7.16,7.16,0,0,0-.94,4.06,10.5,10.5,0,0,0,1.06,5.27c.67,1.19,2.59,2.61,5.74,4.28q13.56,7.2,17.08,11.83t3.52,14.9q0,7.47-1.95,11t-7.55,5.94a32.81,32.81,0,0,1-13,2.4,31.85,31.85,0,0,1-13.92-2.77q-5.76-2.76-7.55-7t-1.78-12.14v-4.58H459.8v8.51c0,2.62.26,4.3.79,5.05a3.22,3.22,0,0,0,2.82,1.12,3.43,3.43,0,0,0,3-1.42,7.42,7.42,0,0,0,1-4.23q0-6.18-1.88-8.08T456,553.24a93.3,93.3,0,0,1-10-6.52,15.26,15.26,0,0,1-4.08-5.62,22.5,22.5,0,0,1-1.61-9.15q0-8,2.29-11.75a15,15,0,0,1,7.4-5.81,32.51,32.51,0,0,1,12.35-2.1,35.53,35.53,0,0,1,13.48,2.29q5.58,2.29,7.38,5.77T485,532.16Z"/><path class="cls-3" d="M557.91,544.21H537.6V532.06q0-5.29-.65-6.62c-.44-.87-1.39-1.31-2.87-1.31-1.67,0-2.74.53-3.19,1.6s-.67,3.37-.67,6.91v32.48c0,3.4.22,5.61.67,6.65s1.47,1.55,3,1.55a2.91,2.91,0,0,0,3-1.55c.46-1,.7-3.48.7-7.32v-8.79h20.31v2.72q0,10.86-1.72,15.4t-7.57,8q-5.86,3.42-14.45,3.42-8.91,0-14.71-2.89a14.63,14.63,0,0,1-7.67-8q-1.87-5.12-1.88-15.39V538.43a82.36,82.36,0,0,1,.58-11.34,15.11,15.11,0,0,1,3.45-7.28,19.12,19.12,0,0,1,8-5.51,31.66,31.66,0,0,1,11.7-2q9,0,14.8,3.11t7.67,7.74q1.83,4.64,1.84,14.43Z"/><path class="cls-3" d="M611.59,554.71a136.07,136.07,0,0,1-.56,14.92,15.56,15.56,0,0,1-3.47,8,18.52,18.52,0,0,1-7.88,5.58,31.86,31.86,0,0,1-11.58,1.94,32.32,32.32,0,0,1-11.26-1.84,18.31,18.31,0,0,1-8-5.5,15.57,15.57,0,0,1-3.62-8,131.3,131.3,0,0,1-.58-15.12v-12a137,137,0,0,1,.55-14.93,15.73,15.73,0,0,1,3.48-8,18.41,18.41,0,0,1,7.88-5.57,31.56,31.56,0,0,1,11.58-2,32.32,32.32,0,0,1,11.26,1.84,18.32,18.32,0,0,1,8,5.51,15.53,15.53,0,0,1,3.62,8,131.3,131.3,0,0,1,.58,15.12Zm-20.31-23q0-4.87-.6-6.24a2.42,2.42,0,0,0-2.48-1.36,2.86,2.86,0,0,0-2.44,1.1q-.84,1.1-.84,6.5v32.65q0,6.09.55,7.52a2.44,2.44,0,0,0,2.58,1.42,2.48,2.48,0,0,0,2.65-1.64c.39-1.09.58-3.7.58-7.81Z"/><path class="cls-3" d="M665.32,513.76V560.5a73.68,73.68,0,0,1-.57,11.16,14.49,14.49,0,0,1-3.43,6.61,17.75,17.75,0,0,1-7.5,5.14,31.06,31.06,0,0,1-11,1.75,34.08,34.08,0,0,1-12.35-2.07,18.48,18.48,0,0,1-8-5.4,14.1,14.1,0,0,1-3.13-7,149.73,149.73,0,0,1-.49-15.53V513.76h20.31V566.2c0,3,.19,5,.55,5.85a2.2,2.2,0,0,0,2.25,1.27,2.36,2.36,0,0,0,2.48-1.4q.56-1.39.56-6.63V513.76Z"/><path class="cls-3" d="M718.53,513.76v69.93h-17.8L690.16,551.9v31.79h-17V513.76h17l11.39,31.49V513.76Z"/><path class="cls-3" d="M774.09,544.21h-20.3V532.06q0-5.29-.65-6.62c-.44-.87-1.4-1.31-2.87-1.31-1.68,0-2.74.53-3.19,1.6s-.67,3.37-.67,6.91v32.48c0,3.4.22,5.61.67,6.65s1.46,1.55,3,1.55a2.91,2.91,0,0,0,3-1.55c.46-1,.7-3.48.7-7.32v-8.79h20.3v2.72q0,10.86-1.71,15.4t-7.57,8q-5.87,3.42-14.45,3.42-8.93,0-14.71-2.89a14.63,14.63,0,0,1-7.67-8q-1.87-5.12-1.88-15.39V538.43a80.78,80.78,0,0,1,.58-11.34,14.93,14.93,0,0,1,3.45-7.28,19.06,19.06,0,0,1,8-5.51,31.65,31.65,0,0,1,11.69-2q9,0,14.81,3.11t7.67,7.74q1.83,4.64,1.83,14.43Z"/><path class="cls-3" d="M801.68,513.76v69.93h-20.3V513.76Z"/><path class="cls-3" d="M830.14,513.76V569.7h12.35v14H809.83V513.76Z"/><path class="cls-3" d="M885.13,513.76v69.93H864.82V513.76Z"/><path class="cls-3" d="M938.62,513.76v69.93h-17.8L910.26,551.9v31.79h-17V513.76h17l11.38,31.49V513.76Z"/><path class="cls-3" d="M994.19,544.21H973.88V532.06q0-5.29-.65-6.62c-.44-.87-1.39-1.31-2.87-1.31-1.67,0-2.74.53-3.19,1.6s-.67,3.37-.67,6.91v32.48c0,3.4.22,5.61.67,6.65s1.47,1.55,3,1.55a2.91,2.91,0,0,0,3-1.55c.46-1,.7-3.48.7-7.32v-8.79h20.31v2.72q0,10.86-1.72,15.4t-7.57,8q-5.86,3.42-14.45,3.42-8.91,0-14.71-2.89a14.63,14.63,0,0,1-7.67-8q-1.87-5.12-1.88-15.39V538.43a80.78,80.78,0,0,1,.58-11.34,15.11,15.11,0,0,1,3.45-7.28,19.12,19.12,0,0,1,8-5.51,31.66,31.66,0,0,1,11.7-2q9,0,14.8,3.11t7.67,7.74q1.83,4.64,1.84,14.43Z"/></g></svg>