<svg id="Layer_1" data-name="Layer 1" xmlns="http://www.w3.org/2000/svg" viewBox="0 0 1000 1000"><defs><style>.cls-1{fill:#fff;}.cls-2{fill:teal;}.cls-3{fill:#f15a24;}</style></defs><title>Wc Logo</title><polygon class="cls-1" points="692.6 894.33 -30 678.04 138.02 80.55 860.61 296.84 692.6 894.33"/><path class="cls-2" d="M72.84,387.76H85l4.22,15.38,4.29-15.38h12.19l-8,23.81,3.47,10.4,10.42-34.21h14.44l-18.93,49.87h-11l-6.88-17.84-6.81,17.84h-11L52.48,387.76H66.85L77.33,422l3.34-10.4Z"/><path class="cls-2" d="M150.78,387.76l8.65,21.56,8.85-21.56h14.44L166,421.13v16.5H152.82V421l-16.41-33.23Z"/><path class="cls-2" d="M207.87,413.12v24.51H194.59V387.76h10.35l19.4,25.36V387.76h13.28v49.87H227.07Z"/><path class="cls-2" d="M253.3,437.63V387.76h18.59a26.49,26.49,0,0,1,10.56,2,21.85,21.85,0,0,1,7.62,5.34A22.36,22.36,0,0,1,294.7,403a30.91,30.91,0,0,1-.17,19.95,21.64,21.64,0,0,1-12.63,12.92,26.67,26.67,0,0,1-10,1.79Zm29.49-25a17.5,17.5,0,0,0-.75-5.26,11.92,11.92,0,0,0-2.15-4.08,9.64,9.64,0,0,0-3.44-2.63,10.72,10.72,0,0,0-4.56-.95h-5.31v26h5.31a10.6,10.6,0,0,0,4.63-1A9.7,9.7,0,0,0,280,422a12,12,0,0,0,2.11-4.15A17.91,17.91,0,0,0,282.79,412.62Z"/><path class="cls-2" d="M353.33,387.76v49.87H340.05V418.11h-16.2v19.52H310.57V387.76h13.28v18.4h16.2v-18.4Z"/><path class="cls-2" d="M384,387.76h12.12l16.75,49.87H399.43l-2.93-9.76H383.63l-2.86,9.76H367.22Zm10.35,31-4.29-15.46-4.5,15.46Z"/><path class="cls-2" d="M462.23,437.63V411.36l-8.1,18.48H447l-8.1-18.48v26.27H425.66V387.76h14.51l10.41,23.46,10.49-23.46h14.44v49.87Z"/><path class="cls-2" d="M515.2,412.27a25.36,25.36,0,0,1,1.67-9,24.49,24.49,0,0,1,4.87-7.94,25,25,0,0,1,7.76-5.69,26.19,26.19,0,0,1,22.57.81,19.19,19.19,0,0,1,7.66,7.9l-10.14,7.45a9,9,0,0,0-1.81-3,9.12,9.12,0,0,0-2.48-1.9,10.8,10.8,0,0,0-2.83-1,14.72,14.72,0,0,0-2.82-.28,10,10,0,0,0-4.94,1.16,10.12,10.12,0,0,0-3.4,3,13.16,13.16,0,0,0-2,4.21,17.66,17.66,0,0,0-.65,4.68,16.5,16.5,0,0,0,.75,5,13.2,13.2,0,0,0,2.18,4.22,10.63,10.63,0,0,0,3.51,2.91,9.83,9.83,0,0,0,4.66,1.09,13.05,13.05,0,0,0,2.8-.31,9.84,9.84,0,0,0,2.75-1.06,9.4,9.4,0,0,0,2.39-1.89,8.5,8.5,0,0,0,1.66-2.85l10.83,6.67a14.31,14.31,0,0,1-3.3,4.92,21.41,21.41,0,0,1-5,3.66,26.3,26.3,0,0,1-6.06,2.24,26.88,26.88,0,0,1-6.3.78,21.75,21.75,0,0,1-9.84-2.22A25,25,0,0,1,522,430a26.84,26.84,0,0,1-5-8.29A26.21,26.21,0,0,1,515.2,412.27Z"/><path class="cls-2" d="M571.15,437.63V387.76h13.28v49.87Z"/><path class="cls-2" d="M635.86,399.7H622v37.93H608.69V399.7h-14V387.76h41.13Z"/><path class="cls-2" d="M661.39,387.76,670,409.32l8.85-21.56h14.44l-16.69,33.37v16.5H663.43V421L647,387.76Z"/><path class="cls-3" d="M102.11,508.46a12.56,12.56,0,0,1-1.45,6.19,11.94,11.94,0,0,1-4,4.23,18.24,18.24,0,0,1-5.9,2.44,30.89,30.89,0,0,1-7.12.79H58.41V468.88h29.8a9.82,9.82,0,0,1,4.85,1.2,12.19,12.19,0,0,1,3.69,3.11,14.27,14.27,0,0,1,2.35,4.35,15.18,15.18,0,0,1,.84,5,14.83,14.83,0,0,1-1.85,7.16,11.72,11.72,0,0,1-5.53,5.14,13.5,13.5,0,0,1,7,4.69C101.25,501.73,102.11,504.72,102.11,508.46Zm-29.6-27.13v8.17h9.63a4.57,4.57,0,0,0,2.64-.83c.79-.55,1.19-1.65,1.19-3.3a4.11,4.11,0,0,0-1-3.11,3.42,3.42,0,0,0-2.39-.93Zm15.27,24.13a5.23,5.23,0,0,0-1-3.26,3.18,3.18,0,0,0-2.61-1.31H72.51v8.92H83.66a4.13,4.13,0,0,0,2.93-1.12A4.23,4.23,0,0,0,87.78,505.46Z"/><path class="cls-3" d="M136.43,509.59a7.56,7.56,0,0,0,4.19-1.13,8.7,8.7,0,0,0,2.82-3,13.73,13.73,0,0,0,1.6-4.23,24.87,24.87,0,0,0,.5-5V468.88h14.11v27.36a38.15,38.15,0,0,1-1.37,10.39A22.91,22.91,0,0,1,154,515a20.3,20.3,0,0,1-7.27,5.54,24.38,24.38,0,0,1-10.31,2,23.74,23.74,0,0,1-10.53-2.14,20.21,20.21,0,0,1-7.2-5.73,23.29,23.29,0,0,1-4.12-8.36,38.06,38.06,0,0,1-1.31-10.09V468.88h14.11v27.36a24.6,24.6,0,0,0,.51,5.06,13.84,13.84,0,0,0,1.59,4.28,8.5,8.5,0,0,0,2.79,2.92A7.52,7.52,0,0,0,136.43,509.59Z"/><path class="cls-3" d="M202.91,486.27a39.53,39.53,0,0,0-4.49-2.4,38.72,38.72,0,0,0-4.38-1.68,15.09,15.09,0,0,0-4.74-.79,6.39,6.39,0,0,0-3,.6,2.11,2.11,0,0,0-1.12,2,2.41,2.41,0,0,0,.65,1.73,6,6,0,0,0,1.88,1.23,22.37,22.37,0,0,0,3,1.09c1.19.35,2.52.78,4,1.28a51.31,51.31,0,0,1,6.4,2.47A19.59,19.59,0,0,1,206,495a12.29,12.29,0,0,1,3.11,4.46,16.73,16.73,0,0,1,1.08,6.37,17.2,17.2,0,0,1-1.7,8.06,14.34,14.34,0,0,1-4.48,5.21,18.55,18.55,0,0,1-6.3,2.81,29.7,29.7,0,0,1-7,.86,38.63,38.63,0,0,1-5.79-.45,48.88,48.88,0,0,1-5.9-1.27,50.6,50.6,0,0,1-5.64-1.95,35.32,35.32,0,0,1-5-2.55l6.08-12.82a42.41,42.41,0,0,0,5.28,2.92,36.23,36.23,0,0,0,5.25,2,20.19,20.19,0,0,0,6,.9,5.8,5.8,0,0,0,3.21-.64,2,2,0,0,0,.91-1.69,2.43,2.43,0,0,0-.91-1.91,8.23,8.23,0,0,0-2.49-1.38q-1.59-.6-3.66-1.2c-1.37-.4-2.83-.88-4.37-1.43a36.56,36.56,0,0,1-5.86-2.59,15.9,15.9,0,0,1-4-3.14,11.31,11.31,0,0,1-2.36-4,16.37,16.37,0,0,1-.76-5.18,18.36,18.36,0,0,1,1.56-7.79,16.05,16.05,0,0,1,4.23-5.63,18.81,18.81,0,0,1,6.12-3.41,22.65,22.65,0,0,1,7.27-1.16,27.08,27.08,0,0,1,5.5.56,42.71,42.71,0,0,1,5.17,1.43,49.36,49.36,0,0,1,4.67,1.87c1.44.68,2.75,1.31,3.9,1.91Z"/><path class="cls-3" d="M225.72,522.11V468.88h14.11v53.23Z"/><path class="cls-3" d="M268.55,495.94v26.17H254.44V468.88h11l20.62,27.06V468.88h14.11v53.23H289Z"/><path class="cls-3" d="M351.4,509.36v12.75H314.79V468.88h36v12.74H328.89v7.5h18.67V501H328.89v8.39Z"/><path class="cls-3" d="M396.09,486.27a39.53,39.53,0,0,0-4.49-2.4,38.72,38.72,0,0,0-4.38-1.68,15.09,15.09,0,0,0-4.74-.79,6.39,6.39,0,0,0-3,.6,2.11,2.11,0,0,0-1.12,2,2.41,2.41,0,0,0,.65,1.73,6.12,6.12,0,0,0,1.88,1.23,22.37,22.37,0,0,0,3,1.09c1.19.35,2.52.78,4,1.28a51.31,51.31,0,0,1,6.4,2.47A19.59,19.59,0,0,1,399.2,495a12.29,12.29,0,0,1,3.11,4.46,16.73,16.73,0,0,1,1.08,6.37,17.2,17.2,0,0,1-1.7,8.06,14.34,14.34,0,0,1-4.48,5.21,18.55,18.55,0,0,1-6.3,2.81,29.7,29.7,0,0,1-7.05.86,38.63,38.63,0,0,1-5.79-.45,48.88,48.88,0,0,1-5.9-1.27,50.6,50.6,0,0,1-5.64-1.95,35.32,35.32,0,0,1-5-2.55l6.08-12.82a42.41,42.41,0,0,0,5.28,2.92,36.23,36.23,0,0,0,5.25,2,20.19,20.19,0,0,0,6,.9,5.87,5.87,0,0,0,3.22-.64,2,2,0,0,0,.9-1.69,2.45,2.45,0,0,0-.9-1.91,8.42,8.42,0,0,0-2.5-1.38q-1.59-.6-3.66-1.2c-1.37-.4-2.83-.88-4.37-1.43a36.56,36.56,0,0,1-5.86-2.59,15.9,15.9,0,0,1-4.05-3.14,11.31,11.31,0,0,1-2.36-4,16.37,16.37,0,0,1-.76-5.18,18.36,18.36,0,0,1,1.56-7.79,16.05,16.05,0,0,1,4.23-5.63,18.81,18.81,0,0,1,6.12-3.41,22.65,22.65,0,0,1,7.27-1.16,27.08,27.08,0,0,1,5.5.56,42.71,42.71,0,0,1,5.17,1.43,49.36,49.36,0,0,1,4.67,1.87c1.44.68,2.75,1.31,3.9,1.91Z"/><path class="cls-3" d="M445.31,486.27a38.7,38.7,0,0,0-4.49-2.4,39.27,39.27,0,0,0-4.37-1.68,15.19,15.19,0,0,0-4.74-.79,6.34,6.34,0,0,0-3,.6,2.12,2.12,0,0,0-1.13,2,2.41,2.41,0,0,0,.65,1.73,6.18,6.18,0,0,0,1.89,1.23,22.37,22.37,0,0,0,3,1.09c1.18.35,2.52.78,4,1.28a51.48,51.48,0,0,1,6.41,2.47,19.71,19.71,0,0,1,4.88,3.19,12.17,12.17,0,0,1,3.11,4.46,16.53,16.53,0,0,1,1.09,6.37,17.32,17.32,0,0,1-1.7,8.06,14.37,14.37,0,0,1-4.49,5.21,18.5,18.5,0,0,1-6.29,2.81,29.78,29.78,0,0,1-7.06.86,38.63,38.63,0,0,1-5.79-.45,48.73,48.73,0,0,1-5.89-1.27,50.08,50.08,0,0,1-5.65-1.95,35.74,35.74,0,0,1-5-2.55l6.07-12.82a42.41,42.41,0,0,0,5.28,2.92,37.15,37.15,0,0,0,5.25,2,20.19,20.19,0,0,0,6,.9,5.87,5.87,0,0,0,3.22-.64,2,2,0,0,0,.9-1.69,2.45,2.45,0,0,0-.9-1.91A8.42,8.42,0,0,0,434,504c-1.06-.4-2.28-.8-3.65-1.2s-2.84-.88-4.38-1.43a36.56,36.56,0,0,1-5.86-2.59,15.9,15.9,0,0,1-4.05-3.14,11.29,11.29,0,0,1-2.35-4,16.09,16.09,0,0,1-.76-5.18,18.51,18.51,0,0,1,1.55-7.79,16,16,0,0,1,4.24-5.63,18.77,18.77,0,0,1,6.11-3.41,22.65,22.65,0,0,1,7.27-1.16,27,27,0,0,1,5.5.56,42.71,42.71,0,0,1,5.17,1.43,48.31,48.31,0,0,1,4.67,1.87c1.45.68,2.75,1.31,3.91,1.91Z"/><path class="cls-3" d="M492.51,495.08a25.14,25.14,0,0,1,1.66-8.95,24.43,24.43,0,0,1,4.85-7.9,24.71,24.71,0,0,1,7.72-5.66,26,26,0,0,1,22.47.8,19.14,19.14,0,0,1,7.62,7.87l-10.1,7.41a8.63,8.63,0,0,0-4.27-4.89,10,10,0,0,0-2.81-1,14.62,14.62,0,0,0-2.81-.28,9.88,9.88,0,0,0-4.91,1.15,10.15,10.15,0,0,0-3.39,3,13.15,13.15,0,0,0-2,4.19,17.43,17.43,0,0,0-.64,4.65,16.75,16.75,0,0,0,.74,5,13.13,13.13,0,0,0,2.17,4.19,10.65,10.65,0,0,0,3.49,2.9,9.91,9.91,0,0,0,4.65,1.09,12.81,12.81,0,0,0,2.77-.32,10.13,10.13,0,0,0,2.75-1.05,9.31,9.31,0,0,0,2.37-1.89,8.37,8.37,0,0,0,1.66-2.83l10.77,6.64a14.27,14.27,0,0,1-3.28,4.9,20.71,20.71,0,0,1-5,3.63,25.73,25.73,0,0,1-6,2.24,27,27,0,0,1-6.27.77,21.69,21.69,0,0,1-9.79-2.2,25,25,0,0,1-7.66-5.84,26.83,26.83,0,0,1-5-8.25A26.19,26.19,0,0,1,492.51,495.08Z"/><path class="cls-3" d="M572.25,520.74a22.46,22.46,0,0,1-10-2.17,24.52,24.52,0,0,1-7.66-5.69,26.26,26.26,0,0,1-6.71-17.45,25.45,25.45,0,0,1,7-17.44,24.71,24.71,0,0,1,7.79-5.52,23.32,23.32,0,0,1,9.86-2.07,22.6,22.6,0,0,1,10,2.17,24.71,24.71,0,0,1,7.66,5.73,26.41,26.41,0,0,1,6.64,17.41,24.74,24.74,0,0,1-1.83,9.4,25.58,25.58,0,0,1-5.08,8,25.06,25.06,0,0,1-7.76,5.56A23.07,23.07,0,0,1,572.25,520.74Zm-10.91-25.17a17.44,17.44,0,0,0,.67,4.86,12.92,12.92,0,0,0,2,4.16,10.37,10.37,0,0,0,3.42,2.94,10.26,10.26,0,0,0,4.91,1.12,9.93,9.93,0,0,0,8.37-4.16,13.26,13.26,0,0,0,2-4.23,18.42,18.42,0,0,0,.64-4.83,17.45,17.45,0,0,0-.68-4.86,12.18,12.18,0,0,0-2.06-4.12,10.5,10.5,0,0,0-3.46-2.87,10.33,10.33,0,0,0-4.85-1.08,10.14,10.14,0,0,0-4.91,1.12,10,10,0,0,0-3.42,3,12.79,12.79,0,0,0-2,4.19A18,18,0,0,0,561.34,495.57Z"/><path class="cls-3" d="M630.47,508.65a7.12,7.12,0,0,0,3.93-1,8.25,8.25,0,0,0,2.64-2.77,12.91,12.91,0,0,0,1.49-3.94,22.41,22.41,0,0,0,.47-4.69V470.68h13.22V496.2a35,35,0,0,1-1.29,9.68,21.22,21.22,0,0,1-4,7.8,19,19,0,0,1-6.81,5.17,22.85,22.85,0,0,1-9.65,1.89,22.34,22.34,0,0,1-9.86-2,19,19,0,0,1-6.75-5.35,21.94,21.94,0,0,1-3.86-7.8,35.45,35.45,0,0,1-1.22-9.4V470.68H622V496.2a22.76,22.76,0,0,0,.47,4.72,12.87,12.87,0,0,0,1.49,4,8,8,0,0,0,2.61,2.73A7.08,7.08,0,0,0,630.47,508.65Z"/><path class="cls-3" d="M680.08,495.92v24.4H666.87V470.68h10.3l19.31,25.24V470.68h13.21v49.64h-10.5Z"/><path class="cls-3" d="M722.38,495.08a25.14,25.14,0,0,1,1.66-8.95,24.4,24.4,0,0,1,4.84-7.9,24.75,24.75,0,0,1,7.73-5.66,26,26,0,0,1,22.46.8,19.14,19.14,0,0,1,7.62,7.87l-10.09,7.41a8.72,8.72,0,0,0-4.27-4.89,10.11,10.11,0,0,0-2.81-1,14.72,14.72,0,0,0-2.82-.28,9.93,9.93,0,0,0-4.91,1.15,10.15,10.15,0,0,0-3.39,3,13.13,13.13,0,0,0-2,4.19,17.44,17.44,0,0,0-.65,4.65,16.44,16.44,0,0,0,.75,5,13.13,13.13,0,0,0,2.17,4.19,10.65,10.65,0,0,0,3.49,2.9,9.84,9.84,0,0,0,4.64,1.09,12.9,12.9,0,0,0,2.78-.32,10.07,10.07,0,0,0,2.74-1.05,9.31,9.31,0,0,0,2.37-1.89,8.21,8.21,0,0,0,1.66-2.83l10.78,6.64a14.16,14.16,0,0,1-3.29,4.9,20.85,20.85,0,0,1-5,3.63,26.07,26.07,0,0,1-6,2.24,27.14,27.14,0,0,1-6.27.77,21.66,21.66,0,0,1-9.79-2.2,24.92,24.92,0,0,1-7.66-5.84,26.45,26.45,0,0,1-5-8.25A26,26,0,0,1,722.38,495.08Z"/><path class="cls-3" d="M777.26,520.32V470.68h13.22v49.64Z"/><path class="cls-3" d="M803,520.32V470.68h13.21v37.76h21.82v11.88Z"/><path class="cls-3" d="M882.27,520.32V470.68h13.22v49.64Z"/><path class="cls-3" d="M923.91,495.92v24.4H910.7V470.68H921l19.31,25.24V470.68h13.21v49.64H943Z"/><path class="cls-3" d="M966.21,494.43a23.83,23.83,0,0,1,1.66-8.71,23.49,23.49,0,0,1,4.84-7.69,24.81,24.81,0,0,1,7.73-5.52,24.41,24.41,0,0,1,10.37-2.11,24.15,24.15,0,0,1,12.09,2.9,18.76,18.76,0,0,1,7.62,7.65l-10.09,7.22a8.46,8.46,0,0,0-1.8-2.93,9.25,9.25,0,0,0-2.47-1.84,10.72,10.72,0,0,0-2.81-.95,15.51,15.51,0,0,0-2.81-.27,10.16,10.16,0,0,0-4.92,1.12,10,10,0,0,0-3.39,2.93,12.65,12.65,0,0,0-2,4.08,16.57,16.57,0,0,0-.64,4.53,15.58,15.58,0,0,0,.74,4.83,12.67,12.67,0,0,0,2.17,4.08,10.55,10.55,0,0,0,3.49,2.82,10,10,0,0,0,4.64,1.06,12.87,12.87,0,0,0,2.78-.31,10,10,0,0,0,2.74-1,9.29,9.29,0,0,0,2.37-1.83,8.25,8.25,0,0,0,1.67-2.76l10.77,6.46a13.77,13.77,0,0,1-3.29,4.77,21.36,21.36,0,0,1-5,3.54,26.38,26.38,0,0,1-6,2.17,27.64,27.64,0,0,1-6.27.75,22.19,22.19,0,0,1-9.79-2.14,24.88,24.88,0,0,1-7.66-5.68,25.77,25.77,0,0,1-5-8A24.72,24.72,0,0,1,966.21,494.43Z"/></svg>