<svg id="Layer_1" data-name="Layer 1" xmlns="http://www.w3.org/2000/svg" viewBox="0 0 1000 1000"><defs><style>.cls-1{fill:teal;}.cls-2{fill:#fff;}.cls-3{fill:#f15a24;}</style></defs><title>Wc Logo3</title><polygon class="cls-1" points="712.91 880.34 0 666.95 165.77 77.46 878.68 290.85 712.91 880.34"/><polygon class="cls-2" points="700.86 860.98 21.99 657.78 179.84 96.44 858.71 299.64 700.86 860.98"/><path class="cls-1" d="M118.61,387.41h11.45l4,14.45,4-14.45h11.45L142,409.78l3.26,9.77,9.79-32.14h13.56l-17.78,46.86H140.49L134,417.5l-6.4,16.77H117.26L99.48,387.41H113l9.85,32.14,3.14-9.77Z"/><path class="cls-1" d="M191.83,387.41,200,407.67l8.32-20.26h13.56l-15.68,31.35v15.51H193.75V418.63l-15.41-31.22Z"/><path class="cls-1" d="M245.46,411.23v23H233V387.41h9.72l18.23,23.82V387.41h12.48v46.86H263.5Z"/><path class="cls-1" d="M288.15,434.27V387.41h17.47a24.85,24.85,0,0,1,9.91,1.85,20.47,20.47,0,0,1,7.17,5,21.16,21.16,0,0,1,4.35,7.43,29.12,29.12,0,0,1-.16,18.74,21.07,21.07,0,0,1-4.64,7.39,20.8,20.8,0,0,1-7.23,4.76,25.21,25.21,0,0,1-9.4,1.68Zm27.7-23.5a16.5,16.5,0,0,0-.7-4.95,11.19,11.19,0,0,0-2-3.83,9.08,9.08,0,0,0-3.23-2.47,10.12,10.12,0,0,0-4.28-.89h-5v24.42h5a9.85,9.85,0,0,0,4.35-.93,9.1,9.1,0,0,0,3.23-2.57,11.62,11.62,0,0,0,2-3.89A17,17,0,0,0,315.85,410.77Z"/><path class="cls-1" d="M382.13,387.41v46.86H369.65V415.92H354.43v18.35H342V387.41h12.48V404.7h15.22V387.41Z"/><path class="cls-1" d="M411,387.41h11.38l15.74,46.86H425.43l-2.75-9.18H410.59l-2.68,9.18H395.17Zm9.72,29.1-4-14.52-4.22,14.52Z"/><path class="cls-1" d="M484.43,434.27V409.58l-7.61,17.36h-6.65l-7.61-17.36v24.69H450.08V387.41h13.63l9.79,22,9.85-22h13.56v46.86Z"/><path class="cls-1" d="M534.2,410.44a23.71,23.71,0,0,1,1.57-8.45,23,23,0,0,1,4.57-7.45,23.51,23.51,0,0,1,7.3-5.35,24.49,24.49,0,0,1,21.2.76,18,18,0,0,1,7.2,7.42l-9.53,7a8.36,8.36,0,0,0-1.7-2.84,8.76,8.76,0,0,0-2.33-1.78,9.66,9.66,0,0,0-2.66-.92,13.7,13.7,0,0,0-2.65-.27,9.45,9.45,0,0,0-4.64,1.09,9.64,9.64,0,0,0-3.2,2.84,12.42,12.42,0,0,0-1.85,4,16.31,16.31,0,0,0-.61,4.39,15.46,15.46,0,0,0,.7,4.68,12.21,12.21,0,0,0,2,4,10,10,0,0,0,3.29,2.74,9.23,9.23,0,0,0,4.39,1,12,12,0,0,0,2.62-.3,9.62,9.62,0,0,0,2.59-1,8.88,8.88,0,0,0,2.24-1.78,8.11,8.11,0,0,0,1.57-2.68l10.17,6.27a13.34,13.34,0,0,1-3.1,4.62,19.84,19.84,0,0,1-4.74,3.44,24.67,24.67,0,0,1-5.69,2.11,25.67,25.67,0,0,1-5.92.72,20.55,20.55,0,0,1-9.24-2.07,23.43,23.43,0,0,1-7.23-5.52,25.06,25.06,0,0,1-4.7-7.78A24.62,24.62,0,0,1,534.2,410.44Z"/><path class="cls-1" d="M586.77,434.27V387.41h12.47v46.86Z"/><path class="cls-1" d="M647.56,398.63h-13v35.64H622V398.63H608.92V387.41h38.64Z"/><path class="cls-1" d="M671.55,387.41l8.12,20.26L688,387.41h13.56l-15.67,31.35v15.51H673.47V418.63l-15.42-31.22Z"/><path class="cls-3" d="M146.1,500.81a11.77,11.77,0,0,1-1.35,5.81,11.31,11.31,0,0,1-3.74,4,17.15,17.15,0,0,1-5.54,2.29,29.52,29.52,0,0,1-6.7.74H105.05v-50h28a9.29,9.29,0,0,1,4.56,1.13,11.49,11.49,0,0,1,3.46,2.92,13.34,13.34,0,0,1,2.21,4.09,14.42,14.42,0,0,1,.79,4.68,13.92,13.92,0,0,1-1.74,6.73,11,11,0,0,1-5.2,4.82,12.78,12.78,0,0,1,6.56,4.4A13.46,13.46,0,0,1,146.1,500.81Zm-27.8-25.49V483h9a4.28,4.28,0,0,0,2.48-.77c.75-.52,1.13-1.55,1.13-3.1a3.84,3.84,0,0,0-.95-2.92,3.21,3.21,0,0,0-2.25-.88ZM132.65,498a4.82,4.82,0,0,0-1-3.06,3,3,0,0,0-2.44-1.23h-11v8.38h10.47a3.82,3.82,0,0,0,2.75-1.06A4,4,0,0,0,132.65,498Z"/><path class="cls-3" d="M178.35,501.87a7.05,7.05,0,0,0,3.94-1.06,8.21,8.21,0,0,0,2.65-2.78,13.17,13.17,0,0,0,1.5-4,23.32,23.32,0,0,0,.47-4.72V463.62h13.26v25.71a35.59,35.59,0,0,1-1.29,9.76,21.56,21.56,0,0,1-4,7.85,19,19,0,0,1-6.83,5.21,22.84,22.84,0,0,1-9.68,1.9,22.48,22.48,0,0,1-9.89-2,19.12,19.12,0,0,1-6.77-5.39,22,22,0,0,1-3.87-7.86,35.51,35.51,0,0,1-1.22-9.47V463.62h13.25v25.71a23,23,0,0,0,.48,4.75,12.86,12.86,0,0,0,1.49,4,8,8,0,0,0,2.62,2.75A7.11,7.11,0,0,0,178.35,501.87Z"/><path class="cls-3" d="M240.8,480a37.79,37.79,0,0,0-4.21-2.25,39.38,39.38,0,0,0-4.11-1.59,14.48,14.48,0,0,0-4.45-.73,6,6,0,0,0-2.83.56,2,2,0,0,0-1,1.9,2.22,2.22,0,0,0,.61,1.62,5.83,5.83,0,0,0,1.77,1.16,19.47,19.47,0,0,0,2.82,1c1.11.33,2.37.73,3.77,1.2a48.58,48.58,0,0,1,6,2.33,18.48,18.48,0,0,1,4.59,3,11.52,11.52,0,0,1,2.92,4.19,15.66,15.66,0,0,1,1,6,16.18,16.18,0,0,1-1.6,7.57,13.41,13.41,0,0,1-4.21,4.89,17.56,17.56,0,0,1-5.92,2.64,27.58,27.58,0,0,1-6.62.81,36.49,36.49,0,0,1-5.44-.42,47.34,47.34,0,0,1-10.84-3,33.2,33.2,0,0,1-4.73-2.39L214,496.37a39.33,39.33,0,0,0,5,2.75,33.63,33.63,0,0,0,4.93,1.9,18.85,18.85,0,0,0,5.61.85,5.55,5.55,0,0,0,3-.6,1.87,1.87,0,0,0,.85-1.59,2.31,2.31,0,0,0-.85-1.79,7.68,7.68,0,0,0-2.35-1.3c-1-.38-2.14-.75-3.43-1.13s-2.66-.82-4.11-1.34a34.68,34.68,0,0,1-5.51-2.43,15,15,0,0,1-3.81-3,10.78,10.78,0,0,1-2.21-3.77,15.26,15.26,0,0,1-.71-4.86,17.36,17.36,0,0,1,1.46-7.32,15,15,0,0,1,4-5.28,17.57,17.57,0,0,1,5.74-3.21,21.39,21.39,0,0,1,6.83-1.09,25.26,25.26,0,0,1,5.17.53,39.43,39.43,0,0,1,4.86,1.34,44.39,44.39,0,0,1,4.38,1.76c1.36.63,2.59,1.23,3.67,1.79Z"/><path class="cls-3" d="M262.24,513.63v-50h13.25v50Z"/><path class="cls-3" d="M302.48,489.05v24.58H289.22v-50h10.34l19.37,25.43V463.62h13.25v50H321.65Z"/><path class="cls-3" d="M380.31,501.66v12h-34.4v-50H379.7v12H359.17v7h17.54v11.13H359.17v7.89Z"/><path class="cls-3" d="M422.29,480a36.93,36.93,0,0,0-4.21-2.25,39.38,39.38,0,0,0-4.11-1.59,14.43,14.43,0,0,0-4.45-.73,6,6,0,0,0-2.83.56,2,2,0,0,0-1.05,1.9,2.26,2.26,0,0,0,.61,1.62,5.83,5.83,0,0,0,1.77,1.16,19.47,19.47,0,0,0,2.82,1c1.11.33,2.37.73,3.77,1.2a48.58,48.58,0,0,1,6,2.33,18.48,18.48,0,0,1,4.59,3,11.52,11.52,0,0,1,2.92,4.19,15.66,15.66,0,0,1,1,6,16.18,16.18,0,0,1-1.6,7.57,13.41,13.41,0,0,1-4.21,4.89,17.6,17.6,0,0,1-5.91,2.64,27.72,27.72,0,0,1-6.63.81,36.49,36.49,0,0,1-5.44-.42,47.34,47.34,0,0,1-10.84-3,33.2,33.2,0,0,1-4.73-2.39l5.71-12.05a38.77,38.77,0,0,0,5,2.75,33.05,33.05,0,0,0,4.92,1.9,18.85,18.85,0,0,0,5.61.85,5.55,5.55,0,0,0,3-.6,1.87,1.87,0,0,0,.85-1.59,2.31,2.31,0,0,0-.85-1.79,7.68,7.68,0,0,0-2.35-1.3c-1-.38-2.14-.75-3.43-1.13s-2.66-.82-4.11-1.34a34.68,34.68,0,0,1-5.51-2.43,15,15,0,0,1-3.81-3,10.78,10.78,0,0,1-2.21-3.77,15.26,15.26,0,0,1-.71-4.86,17.36,17.36,0,0,1,1.46-7.32,15,15,0,0,1,4-5.28,17.57,17.57,0,0,1,5.74-3.21,21.39,21.39,0,0,1,6.83-1.09,25.26,25.26,0,0,1,5.17.53,39.43,39.43,0,0,1,4.86,1.34,44.39,44.39,0,0,1,4.38,1.76c1.36.63,2.59,1.23,3.68,1.79Z"/><path class="cls-3" d="M468.54,480a37.79,37.79,0,0,0-4.21-2.25,40.49,40.49,0,0,0-4.12-1.59,14.43,14.43,0,0,0-4.45-.73,5.94,5.94,0,0,0-2.82.56,2,2,0,0,0-1.05,1.9,2.22,2.22,0,0,0,.61,1.62,5.83,5.83,0,0,0,1.77,1.16,19.47,19.47,0,0,0,2.82,1c1.11.33,2.36.73,3.77,1.2a49.2,49.2,0,0,1,6,2.33,18.6,18.6,0,0,1,4.58,3,11.54,11.54,0,0,1,2.93,4.19,15.66,15.66,0,0,1,1,6,16.31,16.31,0,0,1-1.6,7.57,13.43,13.43,0,0,1-4.22,4.89,17.42,17.42,0,0,1-5.91,2.64,27.72,27.72,0,0,1-6.63.81,36.59,36.59,0,0,1-5.44-.42,47.34,47.34,0,0,1-10.84-3,33.07,33.07,0,0,1-4.72-2.39l5.71-12.05a38.65,38.65,0,0,0,5,2.75,33.2,33.2,0,0,0,4.93,1.9,18.75,18.75,0,0,0,5.61.85,5.51,5.51,0,0,0,3-.6,1.85,1.85,0,0,0,.85-1.59,2.28,2.28,0,0,0-.85-1.79,7.73,7.73,0,0,0-2.34-1.3c-1-.38-2.14-.75-3.44-1.13s-2.66-.82-4.11-1.34a34.55,34.55,0,0,1-5.5-2.43,14.79,14.79,0,0,1-3.81-3,10.63,10.63,0,0,1-2.21-3.77,15,15,0,0,1-.71-4.86,17.2,17.2,0,0,1,1.46-7.32,15,15,0,0,1,4-5.28,17.62,17.62,0,0,1,5.75-3.21,21.39,21.39,0,0,1,6.83-1.09,25.09,25.09,0,0,1,5.16.53,40.08,40.08,0,0,1,4.87,1.34,44.39,44.39,0,0,1,4.38,1.76c1.36.63,2.58,1.23,3.67,1.79Z"/><path class="cls-3" d="M512.89,488.24a23.67,23.67,0,0,1,1.56-8.41,22.83,22.83,0,0,1,4.55-7.42,23.14,23.14,0,0,1,7.26-5.32,24.37,24.37,0,0,1,21.1.76,17.94,17.94,0,0,1,7.16,7.38l-9.48,7a8.45,8.45,0,0,0-1.69-2.83A8.83,8.83,0,0,0,541,477.6a9.82,9.82,0,0,0-2.65-.92,14.39,14.39,0,0,0-2.64-.26,9.32,9.32,0,0,0-4.61,1.08,9.57,9.57,0,0,0-3.19,2.83,12.41,12.41,0,0,0-1.84,3.94,16.09,16.09,0,0,0-.61,4.36,15.44,15.44,0,0,0,.7,4.67,12.39,12.39,0,0,0,2,3.94,9.82,9.82,0,0,0,3.28,2.72,9.2,9.2,0,0,0,4.36,1,12.5,12.5,0,0,0,2.61-.29,9.68,9.68,0,0,0,2.58-1,8.79,8.79,0,0,0,2.23-1.77,8.16,8.16,0,0,0,1.56-2.66L555,501.51a13.42,13.42,0,0,1-3.09,4.6,19.84,19.84,0,0,1-4.71,3.41,24.32,24.32,0,0,1-5.67,2.1,25.38,25.38,0,0,1-5.89.73,20.34,20.34,0,0,1-9.19-2.07,23.33,23.33,0,0,1-7.2-5.49,24.86,24.86,0,0,1-4.68-7.75A24.55,24.55,0,0,1,512.89,488.24Z"/><path class="cls-3" d="M587.8,512.35a21.14,21.14,0,0,1-9.36-2,23.35,23.35,0,0,1-7.2-5.35,24.33,24.33,0,0,1-4.64-7.59,24,24,0,0,1-1.66-8.8,23.46,23.46,0,0,1,1.72-8.87,23.77,23.77,0,0,1,4.81-7.52,23.29,23.29,0,0,1,7.32-5.19,22,22,0,0,1,9.26-1.94,21.14,21.14,0,0,1,9.36,2,22.84,22.84,0,0,1,7.19,5.39,24.09,24.09,0,0,1,4.62,7.62,24.37,24.37,0,0,1,1.62,8.73,23.23,23.23,0,0,1-1.72,8.84,23.88,23.88,0,0,1-4.77,7.48,23.45,23.45,0,0,1-7.29,5.22A21.58,21.58,0,0,1,587.8,512.35ZM577.55,488.7a16.41,16.41,0,0,0,.63,4.56,12.18,12.18,0,0,0,1.91,3.91,9.68,9.68,0,0,0,3.22,2.76,10.6,10.6,0,0,0,9.26,0,9.38,9.38,0,0,0,3.22-2.83,12.37,12.37,0,0,0,1.84-4,17,17,0,0,0,.61-4.53,16.54,16.54,0,0,0-.64-4.57,11.27,11.27,0,0,0-1.94-3.87,9.45,9.45,0,0,0-7.8-3.71,9.26,9.26,0,0,0-7.83,3.84,11.87,11.87,0,0,0-1.88,3.94A17.06,17.06,0,0,0,577.55,488.7Z"/><path class="cls-3" d="M642.49,501a6.76,6.76,0,0,0,3.7-1,7.82,7.82,0,0,0,2.48-2.6,12.39,12.39,0,0,0,1.4-3.71,21,21,0,0,0,.44-4.4v-24h12.42v24a33.3,33.3,0,0,1-1.21,9.1,20,20,0,0,1-3.76,7.32,17.77,17.77,0,0,1-6.4,4.86,21.52,21.52,0,0,1-9.07,1.78,21,21,0,0,1-9.26-1.88,17.93,17.93,0,0,1-6.34-5,20.39,20.39,0,0,1-3.62-7.33,32.92,32.92,0,0,1-1.15-8.83v-24h12.41v24a21.4,21.4,0,0,0,.45,4.43,12.08,12.08,0,0,0,1.4,3.75,7.61,7.61,0,0,0,2.45,2.56A6.73,6.73,0,0,0,642.49,501Z"/><path class="cls-3" d="M689.11,489V512H676.69V465.32h9.68L704.51,489V465.32h12.42V512h-9.87Z"/><path class="cls-3" d="M728.84,488.24a23.67,23.67,0,0,1,1.56-8.41,23,23,0,0,1,4.55-7.42,23.37,23.37,0,0,1,7.26-5.32,24.37,24.37,0,0,1,21.1.76,17.91,17.91,0,0,1,7.17,7.38l-9.49,7a8.29,8.29,0,0,0-1.69-2.83A8.67,8.67,0,0,0,757,477.6a9.87,9.87,0,0,0-2.64-.92,14.39,14.39,0,0,0-2.64-.26,9.34,9.34,0,0,0-4.62,1.08,9.64,9.64,0,0,0-3.18,2.83,12.22,12.22,0,0,0-1.85,3.94,16.48,16.48,0,0,0-.6,4.36,15.44,15.44,0,0,0,.7,4.67,12.17,12.17,0,0,0,2,3.94,10,10,0,0,0,3.28,2.72,9.25,9.25,0,0,0,4.36,1,12.5,12.5,0,0,0,2.61-.29,9.55,9.55,0,0,0,2.58-1,8.79,8.79,0,0,0,2.23-1.77,7.83,7.83,0,0,0,1.56-2.66l10.12,6.24a13.54,13.54,0,0,1-3.08,4.6,19.9,19.9,0,0,1-4.72,3.41,24.41,24.41,0,0,1-5.66,2.1,25.44,25.44,0,0,1-5.89.73,20.41,20.41,0,0,1-9.2-2.07,23.29,23.29,0,0,1-7.19-5.49A24.86,24.86,0,0,1,730.5,497,24.34,24.34,0,0,1,728.84,488.24Z"/><path class="cls-3" d="M780.41,512V465.32h12.41V512Z"/><path class="cls-3" d="M804.62,512V465.32H817v35.46h20.49V512Z"/><path class="cls-3" d="M879.06,512V465.32h12.42V512Z"/><path class="cls-3" d="M918.18,489V512H905.77V465.32h9.67L933.59,489V465.32H946V512h-9.87Z"/><path class="cls-3" d="M957.92,487.62a22.45,22.45,0,0,1,1.56-8.18,22.21,22.21,0,0,1,4.55-7.23,23.06,23.06,0,0,1,7.26-5.17,25,25,0,0,1,21.1.73,17.63,17.63,0,0,1,7.16,7.19l-9.48,6.78a8.16,8.16,0,0,0-1.69-2.75,8.48,8.48,0,0,0-2.32-1.72,9.77,9.77,0,0,0-2.65-.9,14.35,14.35,0,0,0-2.64-.25,9.26,9.26,0,0,0-7.8,3.8,12,12,0,0,0-1.84,3.84,15.27,15.27,0,0,0-.61,4.25,14.91,14.91,0,0,0,.7,4.54,11.82,11.82,0,0,0,2,3.83,9.89,9.89,0,0,0,3.28,2.66,9.45,9.45,0,0,0,4.36,1,12.5,12.5,0,0,0,2.61-.29,9.6,9.6,0,0,0,2.58-1,8.82,8.82,0,0,0,2.23-1.72,7.64,7.64,0,0,0,1.56-2.6l10.12,6.08a13.07,13.07,0,0,1-3.09,4.48,19.51,19.51,0,0,1-4.71,3.32,25.15,25.15,0,0,1-5.67,2.05,26.34,26.34,0,0,1-5.88.7,20.76,20.76,0,0,1-9.2-2,23.45,23.45,0,0,1-7.2-5.33,24.65,24.65,0,0,1-4.68-7.55A23.34,23.34,0,0,1,957.92,487.62Z"/></svg>