<svg id="Layer_1" data-name="Layer 1" xmlns="http://www.w3.org/2000/svg" viewBox="0 0 1000 1000"><defs><style>.cls-1{fill:#39007f;}.cls-2{fill:#fff;}.cls-3{fill:#f15a24;}</style></defs><title>Wyndham City Business Council Inc</title><rect class="cls-1" x="-30" y="-6" width="1041" height="1023"/><rect class="cls-2" x="202.27" y="253.74" width="473.88" height="434.12" transform="translate(122.09 -89.55) rotate(13.51)"/><path class="cls-1" d="M272.87,405l-7,60.78H246.1q-2.72-14-4.78-31.88-.94,7.66-4.41,31.88H217.29L210.21,405h15.36l1.67,21.2,1.61,20.5q.89-15.9,4.37-41.7h16.41q.33,2.67,1.73,20l1.74,23.13q1.35-22.06,4.41-43.17Z"/><path class="cls-1" d="M311.05,405l-11.53,38.78v22H284.88v-22L273.77,405h14.52q3.4,17.79,3.84,23.95,1.31-9.73,4.4-23.95Z"/><path class="cls-1" d="M349,405v60.78H335.18L327,438.16v27.63H313.75V405H327l8.86,27.37V405Z"/><path class="cls-1" d="M355.38,405H367.2q11.46,0,15.49,1.05a11.88,11.88,0,0,1,6.14,3.45,11,11,0,0,1,2.62,5.35,80.77,80.77,0,0,1,.53,11.58v21.29q0,8.17-.77,10.94a8.26,8.26,0,0,1-2.68,4.32,11.3,11.3,0,0,1-4.73,2.18,43.05,43.05,0,0,1-8.49.62H355.38Zm15.8,10.4v40c2.28,0,3.68-.46,4.21-1.37s.79-3.4.79-7.45V423a30.87,30.87,0,0,0-.27-5.29,2.47,2.47,0,0,0-1.2-1.71A7.84,7.84,0,0,0,371.18,415.41Z"/><path class="cls-1" d="M434.21,405v60.78h-15.8V440.26h-4.73v25.53H397.87V405h15.81v21.73h4.73V405Z"/><path class="cls-1" d="M467.88,405l9,60.78H460.76l-.85-10.93h-5.65l-.95,10.93H437L445,405Zm-8.38,39.08q-1.2-10.33-2.41-25.53-2.41,17.46-3,25.53Z"/><path class="cls-1" d="M528.36,405v60.78H514.55l0-41-5.5,41h-9.8l-5.8-40.1,0,40.1H479.6V405h20.45q.9,5.48,1.87,12.92l2.25,15.46L507.8,405Z"/><path class="cls-1" d="M585.16,431.47H569.35V420.91q0-4.61-.5-5.75a2.19,2.19,0,0,0-2.24-1.14,2.32,2.32,0,0,0-2.47,1.39,21,21,0,0,0-.53,6v28.23a19.62,19.62,0,0,0,.53,5.78,2.68,2.68,0,0,0,4.67,0q.54-1.35.54-6.36v-7.64h15.81v2.37q0,9.43-1.33,13.38a13.67,13.67,0,0,1-5.9,6.92,20.18,20.18,0,0,1-11.24,3,23.36,23.36,0,0,1-11.45-2.51,12.27,12.27,0,0,1-6-7q-1.47-4.44-1.46-13.38V426.44a79,79,0,0,1,.45-9.85,13.8,13.8,0,0,1,2.68-6.33,15,15,0,0,1,6.19-4.78,25.32,25.32,0,0,1,20.63.95,12.93,12.93,0,0,1,6,6.73q1.42,4,1.43,12.54Z"/><path class="cls-1" d="M606.63,405v60.78h-15.8V405Z"/><path class="cls-1" d="M644.81,405v12.16h-9.39v48.62h-15.8V417.17h-9.35V405Z"/><path class="cls-1" d="M684,405l-11.53,38.78v22H657.83v-22L646.72,405h14.52q3.4,17.79,3.84,23.95,1.32-9.73,4.4-23.95Z"/><path class="cls-3" d="M213.05,488.94h11.89a31.7,31.7,0,0,1,8.54.87,8.5,8.5,0,0,1,4.68,3.55Q239.95,496,240,502c0,2.68-.43,4.55-1.26,5.6s-2.5,1.87-5,2.44q4.13.93,5.6,3.1c1,1.44,1.47,3.66,1.47,6.64V524a16.9,16.9,0,0,1-1.06,6.89,5.73,5.73,0,0,1-3.38,3.06c-1.55.54-4.72.82-9.51.82H213.05ZM225,496.78V507l1.19,0c1.17,0,1.91-.28,2.23-.86s.48-2.22.48-4.94a8.17,8.17,0,0,0-.39-3,2,2,0,0,0-1-1.09A9.28,9.28,0,0,0,225,496.78Zm0,17.33v12.82c1.68,0,2.75-.32,3.21-.79s.69-1.63.69-3.48v-4.28c0-2-.2-3.15-.62-3.56S226.74,514.16,225,514.11Z"/><path class="cls-3" d="M272.17,488.94v30.63a54.13,54.13,0,0,1-.34,7.32,10,10,0,0,1-2,4.33,10.34,10.34,0,0,1-4.41,3.37,16.43,16.43,0,0,1-6.44,1.15,18.1,18.1,0,0,1-7.25-1.36,11,11,0,0,1-4.7-3.54,9.9,9.9,0,0,1-1.84-4.6c-.19-1.61-.28-5-.28-10.18V488.94h11.92v34.37a13.43,13.43,0,0,0,.33,3.84,1.27,1.27,0,0,0,1.31.83,1.38,1.38,0,0,0,1.46-.92,16.9,16.9,0,0,0,.33-4.35V488.94Z"/><path class="cls-3" d="M302,502.81H291v-3.4a6.58,6.58,0,0,0-.43-3,1.56,1.56,0,0,0-1.41-.65,1.8,1.8,0,0,0-1.63.88,5.08,5.08,0,0,0-.55,2.66,7.47,7.47,0,0,0,.62,3.46c.39.77,1.52,1.71,3.37,2.8q7.95,4.73,10,7.76t2.07,9.76q0,4.91-1.15,7.23a9,9,0,0,1-4.43,3.89,17.49,17.49,0,0,1-7.64,1.57,17.06,17.06,0,0,1-8.17-1.81,8.88,8.88,0,0,1-4.43-4.62,23.6,23.6,0,0,1-1-7.95v-3h11.07v5.58a7.41,7.41,0,0,0,.47,3.32,1.8,1.8,0,0,0,1.65.73,1.93,1.93,0,0,0,1.77-.93,5.33,5.33,0,0,0,.58-2.78c0-2.7-.36-4.46-1.1-5.29a35,35,0,0,0-5.58-4.16,56.54,56.54,0,0,1-5.89-4.28,10,10,0,0,1-2.39-3.68,16.26,16.26,0,0,1-.95-6q0-5.26,1.35-7.7a9,9,0,0,1,4.34-3.81,17.27,17.27,0,0,1,7.25-1.38,18.94,18.94,0,0,1,7.92,1.5,8.29,8.29,0,0,1,4.33,3.78c.71,1.52,1.06,4.11,1.06,7.75Z"/><path class="cls-3" d="M318.69,488.94v45.84H306.77V488.94Z"/><path class="cls-3" d="M350.09,488.94v45.84H339.64l-6.2-20.84v20.84h-10V488.94h10l6.68,20.64V488.94Z"/><path class="cls-3" d="M354.88,488.94h19.87v9.17h-8v8.69h7.45v8.72h-7.45V525.6h8.75v9.18H354.88Z"/><path class="cls-3" d="M404.23,502.81H393.16v-3.4a6.72,6.72,0,0,0-.43-3,1.56,1.56,0,0,0-1.41-.65,1.8,1.8,0,0,0-1.63.88,5.07,5.07,0,0,0-.56,2.66,7.46,7.46,0,0,0,.63,3.46c.39.77,1.51,1.71,3.36,2.8q8,4.73,10,7.76t2.07,9.76q0,4.91-1.15,7.23a9,9,0,0,1-4.43,3.89,17.49,17.49,0,0,1-7.64,1.57,17,17,0,0,1-8.17-1.81,8.91,8.91,0,0,1-4.44-4.62,23.89,23.89,0,0,1-1-7.95v-3h11.07v5.58a7.27,7.27,0,0,0,.47,3.32,1.8,1.8,0,0,0,1.65.73,2,2,0,0,0,1.77-.93,5.33,5.33,0,0,0,.58-2.78q0-4-1.1-5.29a35.48,35.48,0,0,0-5.58-4.16,55.42,55.42,0,0,1-5.89-4.28,10,10,0,0,1-2.39-3.68,16.05,16.05,0,0,1-.95-6q0-5.26,1.34-7.7a9,9,0,0,1,4.35-3.81,17.27,17.27,0,0,1,7.25-1.38,18.89,18.89,0,0,1,7.91,1.5,8.31,8.31,0,0,1,4.34,3.78c.7,1.52,1.06,4.11,1.06,7.75Z"/><path class="cls-3" d="M434.21,502.81H423.14v-3.4a6.77,6.77,0,0,0-.42-3,1.59,1.59,0,0,0-1.42-.65,1.8,1.8,0,0,0-1.63.88,5.08,5.08,0,0,0-.55,2.66,7.61,7.61,0,0,0,.62,3.46,9.06,9.06,0,0,0,3.37,2.8q8,4.73,10,7.76t2.06,9.76q0,4.91-1.14,7.23a9.09,9.09,0,0,1-4.43,3.89,17.51,17.51,0,0,1-7.65,1.57,17.09,17.09,0,0,1-8.17-1.81,8.92,8.92,0,0,1-4.43-4.62,23.6,23.6,0,0,1-1.05-7.95v-3H419.4v5.58a7.41,7.41,0,0,0,.47,3.32,1.8,1.8,0,0,0,1.66.73,2,2,0,0,0,1.77-.93,5.43,5.43,0,0,0,.58-2.78q0-4-1.11-5.29a34.72,34.72,0,0,0-5.57-4.16,54.34,54.34,0,0,1-5.89-4.28,9.89,9.89,0,0,1-2.4-3.68,16.26,16.26,0,0,1-1-6q0-5.26,1.35-7.7a9,9,0,0,1,4.35-3.81A17.22,17.22,0,0,1,420.9,488a18.91,18.91,0,0,1,7.92,1.5,8.29,8.29,0,0,1,4.33,3.78c.71,1.52,1.06,4.11,1.06,7.75Z"/><path class="cls-3" d="M477,508.9H465.07v-8a14.16,14.16,0,0,0-.38-4.34,1.63,1.63,0,0,0-1.68-.86,1.76,1.76,0,0,0-1.87,1,15.69,15.69,0,0,0-.4,4.53V522.6a14.6,14.6,0,0,0,.4,4.36,1.69,1.69,0,0,0,1.78,1,1.67,1.67,0,0,0,1.74-1,16.45,16.45,0,0,0,.41-4.8V516.4H477v1.79c0,4.74-.34,8.11-1,10.09a10.26,10.26,0,0,1-4.45,5.22,15.24,15.24,0,0,1-8.48,2.24,17.48,17.48,0,0,1-8.63-1.9,9.15,9.15,0,0,1-4.5-5.25,34.3,34.3,0,0,1-1.11-10.09V505.1a60.82,60.82,0,0,1,.34-7.43,10.39,10.39,0,0,1,2-4.77,11.28,11.28,0,0,1,4.67-3.61,19.08,19.08,0,0,1,15.56.72,9.81,9.81,0,0,1,4.5,5.07q1.08,3,1.08,9.46Z"/><path class="cls-3" d="M508.51,515.78c0,4.6-.11,7.87-.33,9.78a10.85,10.85,0,0,1-2,5.25,11,11,0,0,1-4.63,3.66,16.87,16.87,0,0,1-6.8,1.27,17.3,17.3,0,0,1-6.61-1.2,11,11,0,0,1-6.84-8.85,95.76,95.76,0,0,1-.34-9.91v-7.84q0-6.92.33-9.79a11,11,0,0,1,6.66-8.9,16.87,16.87,0,0,1,6.8-1.28,17.3,17.3,0,0,1,6.61,1.21,11,11,0,0,1,6.84,8.85,95.63,95.63,0,0,1,.34,9.91Zm-11.92-15.07a14.52,14.52,0,0,0-.35-4.09,1.42,1.42,0,0,0-1.46-.89,1.62,1.62,0,0,0-1.43.72c-.33.48-.5,1.91-.5,4.26v21.41a20.86,20.86,0,0,0,.33,4.93,1.41,1.41,0,0,0,1.51.93,1.48,1.48,0,0,0,1.56-1.07,22.53,22.53,0,0,0,.34-5.13Z"/><path class="cls-3" d="M540.05,488.94v30.63a52.47,52.47,0,0,1-.34,7.32,9.76,9.76,0,0,1-2,4.33,10.31,10.31,0,0,1-4.4,3.37,16.46,16.46,0,0,1-6.44,1.15,18,18,0,0,1-7.25-1.36,11,11,0,0,1-4.7-3.54,9.79,9.79,0,0,1-1.84-4.6c-.19-1.61-.28-5-.28-10.18V488.94h11.92v34.37a13.57,13.57,0,0,0,.32,3.84,1.29,1.29,0,0,0,1.32.83,1.39,1.39,0,0,0,1.46-.92,17.58,17.58,0,0,0,.32-4.35V488.94Z"/><path class="cls-3" d="M571.28,488.94v45.84H560.83l-6.2-20.84v20.84h-10V488.94h10l6.69,20.64V488.94Z"/><path class="cls-3" d="M603.9,508.9H592v-8a14.5,14.5,0,0,0-.38-4.34,1.66,1.66,0,0,0-1.69-.86,1.77,1.77,0,0,0-1.87,1,16.21,16.21,0,0,0-.39,4.53V522.6A15.08,15.08,0,0,0,588,527a1.7,1.7,0,0,0,1.79,1,1.67,1.67,0,0,0,1.74-1,16.83,16.83,0,0,0,.41-4.8V516.4H603.9v1.79c0,4.74-.33,8.11-1,10.09a10.31,10.31,0,0,1-4.45,5.22,15.24,15.24,0,0,1-8.48,2.24,17.54,17.54,0,0,1-8.64-1.9,9.22,9.22,0,0,1-4.5-5.25,34.71,34.71,0,0,1-1.1-10.09V505.1a58.84,58.84,0,0,1,.34-7.43,10.37,10.37,0,0,1,2-4.77,11.28,11.28,0,0,1,4.67-3.61,19.08,19.08,0,0,1,15.56.72,9.79,9.79,0,0,1,4.51,5.07q1.06,3,1.07,9.46Z"/><path class="cls-3" d="M620.1,488.94v45.84H608.18V488.94Z"/><path class="cls-3" d="M636.8,488.94V525.6h7.25v9.18H624.88V488.94Z"/><path class="cls-3" d="M669.08,488.94v45.84H657.16V488.94Z"/><path class="cls-3" d="M700.48,488.94v45.84H690l-6.2-20.84v20.84h-10V488.94h10l6.69,20.64V488.94Z"/><path class="cls-3" d="M733.1,508.9H721.18v-8a14.5,14.5,0,0,0-.38-4.34,1.66,1.66,0,0,0-1.69-.86,1.75,1.75,0,0,0-1.86,1,15.69,15.69,0,0,0-.4,4.53V522.6a14.6,14.6,0,0,0,.4,4.36,2,2,0,0,0,3.52,0,16.83,16.83,0,0,0,.41-4.8V516.4H733.1v1.79c0,4.74-.33,8.11-1,10.09a10.31,10.31,0,0,1-4.45,5.22,15.24,15.24,0,0,1-8.48,2.24,17.54,17.54,0,0,1-8.64-1.9,9.22,9.22,0,0,1-4.5-5.25,34.71,34.71,0,0,1-1.1-10.09V505.1a58.84,58.84,0,0,1,.34-7.43,10.37,10.37,0,0,1,2-4.77,11.35,11.35,0,0,1,4.67-3.61,19.08,19.08,0,0,1,15.56.72,9.79,9.79,0,0,1,4.51,5.07q1.07,3,1.07,9.46Z"/></svg>